<svg xmlns="http://www.w3.org/2000/svg" width="256" height="256" viewBox="0 0 100 100">
	<rect width="100" height="100" rx="20" fill="#222630"></rect>
	<path fill="#939fd9" d="M25.40 34.95Q31.04 34.95 34.11 37.42Q37.19 39.89 37.19 44.32L37.19 44.32Q37.19 48.11 35.40 50.92Q33.62 53.74 30.33 55.25Q27.04 56.75 22.57 56.75L22.57 56.75L15.86 56.75L14.22 65.05L7.21 65.05L13.23 34.95L25.40 34.95ZM22.87 51.07Q26.35 51.07 28.24 49.48Q30.13 47.89 30.13 44.93L30.13 44.93Q30.13 42.78 28.69 41.70Q27.25 40.63 24.54 40.63L24.54 40.63L19.08 40.63L16.98 51.07L22.87 51.07ZM49.18 65.57Q45.61 65.57 42.35 64.62Q39.08 63.67 37.10 62.21L37.10 62.21L39.94 56.84Q42.00 58.34 44.58 59.16Q47.16 59.98 49.87 59.98L49.87 59.98Q52.75 59.98 54.43 59.03Q56.11 58.08 56.11 56.45L56.11 56.45Q56.11 55.12 54.77 54.41Q53.44 53.70 50.52 52.88L50.52 52.88Q47.59 52.02 45.74 51.23Q43.89 50.43 42.54 48.84Q41.19 47.25 41.19 44.63L41.19 44.63Q41.19 41.57 42.88 39.25Q44.58 36.93 47.70 35.68Q50.82 34.43 54.95 34.43L54.95 34.43Q58.00 34.43 60.71 35.10Q63.42 35.77 65.35 37.01L65.35 37.01L62.73 42.35Q61.05 41.18 58.94 40.60Q56.84 40.02 54.56 40.02L54.56 40.02Q51.59 40.02 49.87 41.06Q48.15 42.09 48.15 43.72L48.15 43.72Q48.15 44.71 48.88 45.38Q49.61 46.04 50.73 46.45Q51.85 46.86 53.87 47.42L53.87 47.42Q56.75 48.19 58.60 48.99Q60.45 49.78 61.76 51.31Q63.07 52.84 63.07 55.33L63.07 55.33Q63.07 58.43 61.35 60.73Q59.63 63.03 56.49 64.30Q53.35 65.57 49.18 65.57L49.18 65.57ZM76.62 65.57Q73.05 65.57 69.78 64.62Q66.51 63.67 64.53 62.21L64.53 62.21L67.37 56.84Q69.44 58.34 72.02 59.16Q74.60 59.98 77.31 59.98L77.31 59.98Q80.19 59.98 81.86 59.03Q83.54 58.08 83.54 56.45L83.54 56.45Q83.54 55.12 82.21 54.41Q80.87 53.70 77.95 52.88L77.95 52.88Q75.03 52.02 73.18 51.23Q71.33 50.43 69.97 48.84Q68.62 47.25 68.62 44.63L68.62 44.63Q68.62 41.57 70.32 39.25Q72.02 36.93 75.13 35.68Q78.25 34.43 82.38 34.43L82.38 34.43Q85.43 34.43 88.14 35.10Q90.85 35.77 92.78 37.01L92.78 37.01L90.16 42.35Q88.48 41.18 86.38 40.60Q84.27 40.02 81.99 40.02L81.99 40.02Q79.03 40.02 77.31 41.06Q75.59 42.09 75.59 43.72L75.59 43.72Q75.59 44.71 76.32 45.38Q77.05 46.04 78.17 46.45Q79.28 46.86 81.30 47.42L81.30 47.42Q84.19 48.19 86.03 48.99Q87.88 49.78 89.19 51.31Q90.51 52.84 90.51 55.33L90.51 55.33Q90.51 58.43 88.79 60.73Q87.07 63.03 83.93 64.30Q80.79 65.57 76.62 65.57L76.62 65.57Z"></path>
</svg>
